<?xml version="1.0" standalone="no"?>
<!DOCTYPE svg PUBLIC "-//W3C//DTD SVG 20010904//EN"
 "http://www.w3.org/TR/2001/REC-SVG-20010904/DTD/svg10.dtd">
<svg version="1.0" xmlns="http://www.w3.org/2000/svg"
 width="512.000000pt" height="512.000000pt" viewBox="0 0 512.000000 512.000000"
 preserveAspectRatio="xMidYMid meet">

<g transform="translate(0.000000,512.000000) scale(0.100000,-0.100000)"
fill="#000000" stroke="none">
<path d="M1655 5111 c-92 -24 -182 -87 -226 -157 -21 -34 -21 -34 -96 -34
-149 0 -280 -56 -387 -165 -83 -84 -134 -184 -161 -316 l-5 -27 -222 -4 c-161
-4 -236 -9 -269 -20 -114 -37 -226 -147 -266 -261 -17 -50 -18 -132 -18 -1807
l0 -1755 23 -57 c44 -109 131 -196 240 -240 l57 -23 1380 -3 c961 -2 1396 1
1432 8 78 17 165 64 216 119 83 88 117 182 117 322 l0 86 43 12 c23 7 86 33
140 59 l98 46 417 -416 c229 -228 433 -424 452 -436 59 -35 150 -48 222 -33
80 16 124 39 178 93 101 100 127 262 63 393 -8 17 -204 220 -436 452 l-420
422 40 83 c205 422 168 909 -100 1308 -64 95 -229 260 -327 327 -90 61 -233
134 -312 159 l-57 17 -3 411 c-3 403 -4 412 -26 469 -31 75 -90 149 -156 193
-91 60 -126 67 -371 72 -229 4 -235 5 -235 49 0 43 -43 148 -87 216 -103 156
-271 247 -456 247 -75 0 -75 0 -96 34 -31 50 -96 105 -157 133 -58 26 -174 39
-229 24z m155 -213 c36 -18 52 -35 77 -83 17 -33 42 -67 54 -75 15 -10 63 -16
153 -20 113 -5 139 -9 188 -32 96 -45 175 -142 198 -244 l8 -34 -754 0 -753 0
15 53 c19 64 73 147 122 183 70 54 137 73 252 74 144 1 167 11 206 83 38 71
51 85 100 102 55 20 83 18 134 -7z m1355 -723 c36 -22 57 -45 77 -84 l28 -53
0 -363 0 -363 -117 5 c-275 13 -557 -69 -790 -228 -106 -73 -276 -245 -343
-346 l-53 -83 -456 0 c-414 0 -459 -2 -491 -18 -64 -31 -70 -117 -13 -162 25
-19 41 -20 444 -20 295 0 419 -3 419 -11 0 -6 -9 -43 -20 -82 -11 -40 -24 -98
-30 -129 l-11 -58 -588 0 c-394 0 -598 -4 -619 -11 -53 -18 -79 -88 -52 -140
27 -49 28 -49 659 -49 l590 0 6 -57 c6 -59 22 -159 32 -200 l5 -23 -604 0
c-406 0 -615 -4 -636 -11 -53 -18 -79 -88 -52 -140 27 -49 23 -49 714 -49
l645 0 36 -72 c59 -117 133 -217 240 -324 148 -148 309 -249 497 -313 156 -53
237 -65 421 -66 l167 0 0 -50 c0 -27 -5 -67 -11 -89 -14 -50 -82 -118 -135
-134 -32 -9 -352 -12 -1395 -12 -1340 0 -1354 1 -1399 21 -60 27 -79 45 -106
104 l-24 50 0 1711 0 1710 26 53 c28 56 79 98 136 111 18 5 645 7 1394 7
l1361 -2 48 -30z m160 -1080 c375 -79 689 -356 811 -713 174 -509 -32 -1053
-501 -1321 -218 -125 -507 -169 -760 -116 -374 78 -689 356 -811 713 -221 647
182 1328 856 1446 106 19 295 15 405 -9z m1187 -2292 c346 -348 397 -403 403
-435 10 -52 -1 -86 -39 -124 -38 -38 -72 -49 -124 -39 -32 6 -87 57 -435 404
l-398 397 93 96 c51 52 95 96 98 97 3 0 184 -178 402 -396z"/>
<path d="M1696 4725 c-41 -22 -55 -44 -56 -88 0 -52 43 -97 93 -97 54 0 97 41
97 91 0 49 -22 84 -62 98 -39 14 -37 14 -72 -4z"/>
<path d="M1213 3926 c-90 -29 -147 -80 -190 -171 -27 -58 -28 -66 -28 -220 0
-151 2 -163 26 -216 92 -196 343 -245 492 -95 74 73 95 150 56 200 -50 63
-114 56 -167 -17 -57 -79 -117 -92 -174 -39 l-28 26 0 140 c0 118 3 144 18
162 51 63 131 56 174 -15 31 -52 58 -71 101 -71 29 0 46 7 68 29 39 40 38 81
-3 151 -73 120 -215 176 -345 136z"/>
<path d="M1824 3930 c-32 -13 -54 -50 -54 -90 0 -22 47 -147 133 -349 141
-334 153 -354 217 -354 64 0 76 20 217 354 89 211 133 326 133 351 0 76 -81
120 -146 80 -25 -16 -44 -51 -115 -221 -46 -110 -86 -201 -89 -201 -3 0 -43
91 -89 201 -72 171 -90 204 -115 220 -33 20 -59 23 -92 9z"/>
<path d="M600 2649 c-37 -15 -60 -49 -60 -92 0 -51 46 -97 95 -97 41 0 91 39
98 77 7 40 -16 89 -52 107 -34 18 -46 19 -81 5z"/>
<path d="M600 1209 c-52 -21 -76 -90 -50 -140 26 -47 44 -49 459 -49 270 0
398 3 415 11 33 15 59 71 51 108 -3 16 -17 39 -31 52 l-26 24 -396 2 c-246 1
-407 -2 -422 -8z"/>
<path d="M1700 1209 c-97 -38 -69 -189 35 -189 51 0 95 44 95 95 0 49 -15 74
-55 91 -39 16 -41 16 -75 3z"/>
<path d="M2990 2894 c-218 -40 -375 -118 -510 -254 -115 -114 -194 -256 -236
-420 -26 -104 -26 -296 0 -400 84 -331 325 -572 656 -656 104 -26 296 -26 400
0 331 84 572 325 656 656 26 104 26 296 0 400 -83 326 -317 564 -641 652 -68
18 -271 32 -325 22z m242 -209 c245 -51 437 -224 516 -462 21 -64 25 -98 26
-193 1 -122 -14 -198 -58 -295 l-22 -50 -33 61 c-40 75 -125 162 -194 199 -29
16 -54 29 -55 31 -2 1 6 29 18 62 30 81 26 205 -8 274 -37 74 -96 134 -170
170 -59 30 -76 33 -152 33 -76 0 -93 -3 -152 -33 -74 -36 -133 -96 -170 -170
-33 -68 -37 -186 -8 -271 11 -35 20 -64 18 -66 -2 -1 -26 -14 -55 -30 -69 -37
-154 -124 -194 -199 l-33 -61 -22 50 c-35 76 -55 161 -61 255 -26 431 386 785
809 695z m-62 -384 c108 -57 108 -215 0 -272 -102 -55 -220 18 -220 136 0 87
66 155 150 155 19 0 51 -8 70 -19z m157 -512 c107 -40 193 -159 193 -267 0
-34 -5 -40 -58 -73 -118 -74 -221 -104 -362 -104 -141 0 -244 30 -362 104 -53
33 -58 39 -58 73 0 58 39 148 84 195 26 27 64 53 101 68 56 23 73 25 232 25
152 0 179 -3 230 -21z"/>
</g>
</svg>
